<svg id="Layer_1" data-name="Layer 1" xmlns="http://www.w3.org/2000/svg" viewBox="0 0 798.4 798.4"><defs><style>.cls-1{fill:#ff4520;stroke:#fff;stroke-miterlimit:10;}.cls-2{fill:#f0d3cd;}.cls-3{fill:#fff;}</style></defs><title>logo</title><circle class="cls-1" cx="399.2" cy="399.2" r="398.7"/><path class="cls-2" d="M458.1,280.6V564.7H346.2V216.6c0-18.89,15.31-37.2,34.2-37.2H489.8c43.7,0,77.6,13.8,101.7,35.5q40.2,36.45,40.2,92.3a129.2,129.2,0,0,1-49.9,102.2l64.5,155.2H529L474.7,443.3V346.5h8.8c23.5,0,35.3-16.1,35.3-36.3,0-17.8-13.6-24.7-40.8-24.7l-19.9,3Z" transform="translate(-0.8 -0.8)"/><path class="cls-3" d="M328.1,375.9v99.2H295.8v89.6H183.9V325.4q0-69.45,37.9-107.9T328.3,179q66.15,0,97.9,34.9t31.7,107.6V564.6H346V329c0-14.7-1.7-24.9-5.2-30.6s-9.7-8.5-18.7-8.5c-17.5,0-26.2,13.1-26.2,39.1v46.9Z" transform="translate(-0.8 -0.8)"/></svg>