<?xml version="1.0" encoding="utf-8"?>
<!-- Generator: Adobe Illustrator 18.1.1, SVG Export Plug-In . SVG Version: 6.00 Build 0)  -->
<svg version="1.1" id="Layer_1" xmlns="http://www.w3.org/2000/svg" xmlns:xlink="http://www.w3.org/1999/xlink" x="0px" y="0px"
	 viewBox="0 0 800 800" enable-background="new 0 0 800 800" xml:space="preserve">
<circle fill="#FF4520" stroke="#FFFFFF" stroke-miterlimit="10" cx="400" cy="400" r="398.7"/>
<path fill="#FFFFFF" d="M328.1,375.9v99.2h-32.3v89.6H183.9V325.4c0-46.3,12.6-82.3,37.9-107.9S282.6,179,328.3,179
	c44.1,0,76.7,11.6,97.9,34.9c21.1,23.2,31.7,59.1,31.7,107.6v243.1H346V329c0-14.7-1.7-24.9-5.2-30.6s-9.7-8.5-18.7-8.5
	c-17.5,0-26.2,13.1-26.2,39.1v46.9H328.1z"/>
<path fill="#F0D3CD" d="M458.1,280.6v284.1H346.2V216.6c0-18.9,15.3-37.2,34.2-37.2h109.4c43.7,0,77.6,13.8,101.7,35.5
	c26.8,24.3,40.2,55,40.2,92.3c0,38-16.6,76.1-49.9,102.2l64.5,155.2H529l-54.3-121.3v-96.8h8.8c23.5,0,35.3-16.1,35.3-36.3
	c0-17.8-13.6-24.7-40.8-24.7l-19.9,3V280.6z"/>
</svg>
